<svg height="512pt" viewBox="0 0 512 512" width="512pt" xmlns="http://www.w3.org/2000/svg"><path d="m10 282h492v40h-492zm0 0" fill="#e2f1a1"/><path d="m35.5 282v-160.132812h40v160.132812zm0 0" fill="#b0e7f8"/><path d="m437.5 281.132812v-160.132812h40v160.132812zm0 0" fill="#b0e7f8"/><path d="m10 322h492v180h-492zm0 0" fill="#c68a65"/><path d="m32.363281 10h44.726563l-20 105c0 16.570312-10.011719 25-22.363282 25-12.351562 0-22.363281-8.429688-22.363281-25zm0 0" fill="#ff6977"/><path d="m77.089844 10h44.726562l-20 105c0 16.570312-10.011718 25-22.363281 25s-22.363281-8.429688-22.363281-25zm0 0" fill="#ff6977"/><path d="m166.546875 10h-44.730469l-20 105c0 16.566406 20.015625 25 32.367188 25 12.347656 0 22.363281-8.433594 22.363281-25 0 16.566406 10.011719 25 22.363281 25 12.351563 0 32.363282-8.433594 32.363282-25v-105zm0 0" fill="#e8e7e9"/><path d="m211.273438 10h44.726562v105c0 16.570312-10.011719 25-22.363281 25-12.351563 0-22.363281-8.429688-22.363281-25zm0 0" fill="#ff6977"/><path d="m256 10h44.726562v105c0 16.570312-10.011718 25-22.363281 25-12.351562 0-22.363281-8.429688-22.363281-25zm0 0" fill="#ff6977"/><path d="m300.726562 10h44.726563l10 105c0 16.570312-10.011719 25-22.363281 25-12.351563 0-32.363282-8.429688-32.363282-25zm0 0" fill="#e8e7e9"/><path d="m345.453125 10h44.730469l20 105c0 16.570312-20.015625 25-32.367188 25-12.347656 0-22.363281-8.429688-22.363281-25zm0 0" fill="#e8e7e9"/><path d="m390.183594 10h44.726562l20 105c0 16.570312-10.015625 25-22.363281 25-12.351563 0-22.367187-8.429688-22.367187-25zm0 0" fill="#ff6977"/><path d="m434.910156 10h44.726563l20 105c0 16.570312-10.015625 25-22.363281 25-12.351563 0-22.367188-8.429688-22.367188-25zm0 0" fill="#ff6977"/><g fill="#78d0a9"><path d="m155.5 262c0 11.046875-8.953125 20-20 20s-20-8.953125-20-20 8.953125-20 20-20 20 8.953125 20 20zm0 0"/><path d="m195.5 262c0 11.046875-8.953125 20-20 20s-20-8.953125-20-20 8.953125-20 20-20 20 8.953125 20 20zm0 0"/><path d="m235.5 262c0 11.046875-8.953125 20-20 20s-20-8.953125-20-20 8.953125-20 20-20 20 8.953125 20 20zm0 0"/><path d="m175.5 227c0 11.046875-8.953125 20-20 20s-20-8.953125-20-20 8.953125-20 20-20 20 8.953125 20 20zm0 0"/><path d="m215.5 227c0 11.046875-8.953125 20-20 20s-20-8.953125-20-20 8.953125-20 20-20 20 8.953125 20 20zm0 0"/></g><path d="m358.5 262c0 11.046875-8.953125 20-20 20s-20-8.953125-20-20 8.953125-20 20-20 20 8.953125 20 20zm0 0" fill="#ffcb7c"/><path d="m398.5 262c0 11.046875-8.953125 20-20 20s-20-8.953125-20-20 8.953125-20 20-20 20 8.953125 20 20zm0 0" fill="#ffcb7c"/><path d="m378.5 227c0 11.046875-8.953125 20-20 20s-20-8.953125-20-20 8.953125-20 20-20 20 8.953125 20 20zm0 0" fill="#ffcb7c"/><path d="m502 272h-14.5v-123.519531c13.421875-4.203125 22.136719-16.804688 22.136719-33.480469 0-.628906-.058594-1.253906-.175781-1.871094l-20-105c-.898438-4.71875-5.023438-8.128906-9.824219-8.128906h-447.273438c-4.800781 0-8.925781 3.410156-9.824219 8.128906l-20 105c-.117187.617188-.175781 1.242188-.175781 1.871094 0 17.082031 9.152344 29.886719 23.136719 33.769531v123.230469h-15.5c-5.523438 0-10 4.476562-10 10v220c0 5.523438 4.476562 10 10 10h492c5.523438 0 10-4.476562 10-10v-220c0-5.523438-4.476562-10-10-10zm-30.640625-252 18.265625 95.878906c-.261719 9.117188-4.625 14.121094-12.351562 14.121094-7.972657 0-12.363282-5.328125-12.363282-15 0-.628906-.058594-1.253906-.179687-1.871094l-17.738281-93.128906zm-3.859375 128.621094v122.515625h-20v-124.582031c2.75-1.398438 5.234375-3.191407 7.410156-5.339844 3.472656 3.425781 7.726563 5.960937 12.589844 7.40625zm-40.867188-128.621094 18.265626 95.882812c-.261719 9.113282-4.625 14.117188-12.351563 14.117188-7.972656 0-12.363281-5.328125-12.363281-15 0-.628906-.0625-1.253906-.179688-1.871094l-17.738281-93.128906zm-44.726562 0 18.242188 95.777344c-.757813 9.210937-14.945313 14.222656-22.332032 14.222656-7.972656 0-12.363281-5.328125-12.363281-15 0-.316406-.015625-.632812-.042969-.949219l-8.957031-94.050781zm-71.179688 0h25.636719l9.089844 95.445312c-.132813 9.390626-4.511719 14.554688-12.363281 14.554688-7.589844 0-22.363282-5.296875-22.363282-15zm-44.726562 0h24.726562v95c0 9.671875-4.390624 15-12.363281 15-7.972656 0-12.363281-5.328125-12.363281-15zm-44.726562 0h24.726562v95c0 9.671875-4.390625 15-12.363281 15-7.972657 0-12.363281-5.328125-12.363281-15zm12.363281 130c9.003906 0 16.722656-3.21875 22.363281-8.78125 5.640625 5.5625 13.359375 8.78125 22.363281 8.78125 10.097657 0 18.578125-4.039062 24.320313-10.902344 8.6875 7.179688 20.589844 10.902344 30.40625 10.902344 9.007812 0 16.726562-3.21875 22.367187-8.785156 5.640625 5.566406 13.355469 8.785156 22.359375 8.785156 9.820313 0 21.722656-3.726562 30.410156-10.90625 4.761719 5.683594 11.394532 9.433594 19.273438 10.554688v122.351562h-20.71875c1.109375-3.128906 1.71875-6.492188 1.71875-10 0-13.300781-8.703125-24.601562-20.710938-28.519531.460938-2.089844.710938-4.253907.710938-6.480469 0-16.542969-13.457031-30-30-30s-30 13.457031-30 30c0 2.226562.25 4.390625.710938 6.480469-12.007813 3.917969-20.710938 15.21875-20.710938 28.519531 0 3.507812.609375 6.871094 1.71875 10h-66.4375c1.109375-3.128906 1.71875-6.492188 1.71875-10 0-13.300781-8.703125-24.601562-20.710938-28.519531.460938-2.089844.710938-4.253907.710938-6.480469 0-16.542969-13.457031-30-30-30-7.679688 0-14.6875 2.902344-20 7.664062-5.3125-4.761718-12.320312-7.664062-20-7.664062-16.542969 0-30 13.457031-30 30 0 2.226562.25 4.390625.710938 6.480469-12.007813 3.917969-20.710938 15.21875-20.710938 28.519531 0 3.507812.609375 6.871094 1.71875 10h-21.71875v-122.519531c7.4375-1.28125 13.714844-4.945313 18.273438-10.386719 8.6875 7.179688 20.589843 10.90625 30.410156 10.90625 9 0 16.722656-3.214844 22.363281-8.777344 5.640625 5.5625 13.359375 8.777344 22.363281 8.777344 9.816406 0 21.71875-3.722656 30.40625-10.902344 5.742188 6.863282 14.222656 10.902344 24.320313 10.902344zm144.863281 102c5.515625 0 10 4.484375 10 10s-4.484375 10-10 10-10-4.484375-10-10 4.484375-10 10-10zm-20-15c-5.515625 0-10-4.484375-10-10s4.484375-10 10-10 10 4.484375 10 10-4.484375 10-10 10zm-10 25c0 5.515625-4.484375 10-10 10s-10-4.484375-10-10 4.484375-10 10-10 10 4.484375 10 10zm-133-10c5.515625 0 10 4.484375 10 10s-4.484375 10-10 10-10-4.484375-10-10 4.484375-10 10-10zm-20-15c-5.515625 0-10-4.484375-10-10s4.484375-10 10-10 10 4.484375 10 10-4.484375 10-10 10zm-20 15c5.515625 0 10 4.484375 10 10s-4.484375 10-10 10-10-4.484375-10-10 4.484375-10 10-10zm-20-15c-5.515625 0-10-4.484375-10-10s4.484375-10 10-10 10 4.484375 10 10-4.484375 10-10 10zm-10 25c0 5.515625-4.484375 10-10 10s-10-4.484375-10-10 4.484375-10 10-10 10 4.484375 10 10zm-15.40625-242h25.453125l-.425781 4.460938c-.519532 5.488281 3.519531 10.378906 9.007812 10.898437.3125.03125.640625.039063.960938.039063 2.46875 0 4.851562-.910157 6.699218-2.578126 1.851563-1.679687 3.011719-3.972656 3.242188-6.472656l.605469-6.347656h25.636719v95c0 9.703125-14.773438 15-22.363282 15-7.871094 0-12.242187-5.199219-12.355468-14.636719l.894531-9.375c.25-2.660156-.550781-5.261719-2.25-7.308593-1.699219-2.0625-4.097657-3.339844-6.757813-3.589844-2.792968-.261719-5.570312.65625-7.660156 2.539062-1.851562 1.679688-3 3.96875-3.242188 6.46875l-.949218 9.949219c-.019532.222656-.023438.441406-.03125.664063 0 .097656-.011719.191406-.011719.285156 0 9.675781-4.394531 15-12.367187 15-7.382813 0-21.570313-5.011719-22.332032-14.222656zm-44.726562 0h24.367187l-17.738281 93.128906c-.117188.617188-.179688 1.242188-.179688 1.871094 0 9.671875-4.390625 15-12.363281 15-7.726563 0-12.089844-5.003906-12.351563-14.117188zm-62.992188 95.878906 18.265625-95.878906h24.367187l-17.738281 93.128906c-.121093.617188-.179687 1.242188-.179687 1.871094 0 9.671875-4.390625 15-12.363282 15-7.726562 0-12.089843-5.003906-12.351562-14.121094zm43.125 31.15625v124.964844h-20v-123.703125c4.445312-1.480469 8.355469-3.894531 11.589844-7.082031 2.433594 2.402344 5.261718 4.363281 8.410156 5.820312zm-45.5 144.964844h472v20h-472zm0 200v-20h20c5.511719 0 10-4.488281 10-10s-4.488281-10-10-10h-20v-120h472v120h-20c-5.511719 0-10 4.488281-10 10s4.488281 10 10 10h20v20zm0 0"/><path d="m185.617188 375.984375c1.90625 0 3.402343-.867187 4.488281-2.601563 1.082031-1.730468 1.625-3.855468 1.625-6.371093 0-2.339844-.519531-4.375-1.5625-6.109375-1.039063-1.730469-2.554688-2.597656-4.550781-2.597656h-46.277344c-2.429688 0-4.507813.542968-6.242188 1.625-1.734375 1.082031-2.597656 2.621093-2.597656 4.613281v82.550781c0 1.996094.863281 3.53125 2.597656 4.613281 1.734375 1.085938 3.8125 1.625 6.242188 1.625h46.277344c1.996093 0 3.511718-.863281 4.550781-2.597656 1.042969-1.734375 1.5625-3.773437 1.5625-6.113281 0-2.511719-.542969-4.632813-1.625-6.367188-1.085938-1.734375-2.582031-2.601562-4.488281-2.601562h-34.839844v-22.101563h19.5c1.996094 0 3.511718-.777343 4.550781-2.339843 1.039063-1.558594 1.5625-3.332032 1.5625-5.328126 0-2.164062-.542969-4.03125-1.625-5.589843-1.085937-1.5625-2.582031-2.339844-4.488281-2.339844h-19.5v-21.972656h34.839844zm0 0"/><path d="m256.597656 375.984375c7.453125 0 11.308594 3.898437 11.570313 11.699219.261719 4.074218 3.640625 6.109375 10.140625 6.109375 3.640625 0 6.238281-.671875 7.800781-2.015625 1.558594-1.34375 2.339844-3.878906 2.339844-7.605469 0-8.058594-3.054688-14.382813-9.167969-18.976563-6.109375-4.59375-13.929688-6.890624-23.464844-6.890624-9.273437 0-16.789062 2.46875-22.554687 7.410156-5.765625 4.9375-8.644531 12.695312-8.644531 23.269531v34.449219c0 10.574218 2.878906 18.328125 8.644531 23.269531s13.28125 7.410156 22.554687 7.410156c9.535156 0 17.355469-2.425781 23.464844-7.277343 6.113281-4.855469 9.167969-11.484376 9.167969-19.890626 0-3.726562-.78125-6.261718-2.339844-7.605468-1.5625-1.34375-4.207031-2.015625-7.929687-2.015625-6.328126 0-9.667969 2.035156-10.011719 6.109375-.175781 1.820312-.371094 3.25-.585938 4.289062-.214843 1.039063-.671875 2.363282-1.363281 3.964844-.695312 1.605469-1.84375 2.796875-3.445312 3.574219-1.605469.78125-3.621094 1.171875-6.046876 1.171875-7.886718 0-11.828124-4.332032-11.828124-13v-34.449219c0-8.667969 3.898437-13 11.699218-13zm0 0"/><path d="m378.796875 365.714844c-5.808594-4.941406-13.5625-7.410156-23.269531-7.410156-9.621094 0-17.335938 2.46875-23.140625 7.410156-5.804688 4.9375-8.707031 12.695312-8.707031 23.269531v34.449219c0 10.574218 2.902343 18.332031 8.707031 23.269531 5.804687 4.941406 13.519531 7.410156 23.140625 7.410156 9.707031 0 17.460937-2.46875 23.269531-7.410156 5.804687-4.9375 8.710937-12.691406 8.710937-23.269531v-34.449219c0-10.574219-2.90625-18.332031-8.710937-23.269531zm-11.570313 57.71875c0 8.667968-3.898437 13-11.699218 13-7.714844 0-11.570313-4.332032-11.570313-13v-34.449219c0-8.664063 3.855469-13 11.570313-13 7.800781 0 11.699218 4.335937 11.699218 13zm0 0"/><path d="m160.339844 75.179688c.308594.03125.640625.039062.960937.039062 2.480469 0 4.847657-.910156 6.699219-2.578125 1.851562-1.679687 3-3.980469 3.238281-6.46875.523438-5.492187-3.519531-10.382813-9.007812-10.902344-2.789063-.269531-5.570313.660157-7.652344 2.539063-1.859375 1.683594-3.007813 3.972656-3.25 6.472656-.25 2.660156.542969 5.25 2.25 7.308594 1.703125 2.058594 4.101563 3.332031 6.761719 3.589844zm0 0"/><path d="m80 452c-5.511719 0-10 4.488281-10 10s4.488281 10 10 10 10-4.488281 10-10-4.488281-10-10-10zm0 0"/><path d="m432 452c-5.511719 0-10 4.488281-10 10s4.488281 10 10 10 10-4.488281 10-10-4.488281-10-10-10zm0 0"/></svg>