<svg id="Layer_5" enable-background="new 0 0 64 64" height="512" viewBox="0 0 64 64" width="512" xmlns="http://www.w3.org/2000/svg"><g><g><path d="m55 2h-34c-1.1 0-2 .9-2 2v2 4h5 8 6 6 8 5v-4-2c0-1.1-.9-2-2-2z" fill="#e6e9ed"/><g fill="#fcd770"><path d="m59.43 11.43 2.57 8.57h-8l-2-10h5 .51c.89 0 1.66.58 1.92 1.43z"/><path d="m62 20v2.5c0 1.39-.82 2.6-2 3.16-.45.22-.96.34-1.5.34h-1c-1.93 0-3.5-1.57-3.5-3.5v-2.5z"/><path d="m46 20v2.5c0 1.93-1.57 3.5-3.5 3.5h-1c-1.93 0-3.5-1.57-3.5-3.5v-2.5z"/><path d="m44 10 2 10h-8v-10z"/><path d="m30 20v2.5c0 1.93-1.57 3.5-3.5 3.5h-1c-1.93 0-3.5-1.57-3.5-3.5v-2.5z"/><path d="m32 10-2 10h-8l2-10z"/></g><path d="m24 10-2 10h-8l2.57-8.57c.26-.85 1.03-1.43 1.92-1.43h.51z" fill="#ff826e"/><path d="m38 10v10h-8l2-10z" fill="#ff826e"/><path d="m52 10 2 10h-8l-2-10z" fill="#ff826e"/><path d="m54 20v2.5c0 1.93-1.57 3.5-3.5 3.5h-1c-1.93 0-3.5-1.57-3.5-3.5v-2.5z" fill="#ff826e"/><path d="m38 20v2.5c0 1.93-1.57 3.5-3.5 3.5h-1c-1.93 0-3.5-1.57-3.5-3.5v-2.5z" fill="#ff826e"/><path d="m22 20v2.5c0 1.93-1.57 3.5-3.5 3.5h-1c-.54 0-1.05-.12-1.5-.34-1.18-.56-2-1.77-2-3.16v-2.5z" fill="#ff826e"/><path d="m18.5 26c1.93 0 3.5-1.57 3.5-3.5 0 1.93 1.57 3.5 3.5 3.5h1c1.93 0 3.5-1.57 3.5-3.5 0 1.93 1.57 3.5 3.5 3.5h1c1.93 0 3.5-1.57 3.5-3.5 0 1.93 1.57 3.5 3.5 3.5h1c1.93 0 3.5-1.57 3.5-3.5 0 1.93 1.57 3.5 3.5 3.5h1c1.93 0 3.5-1.57 3.5-3.5 0 1.93 1.57 3.5 3.5 3.5h1c.54 0 1.05-.12 1.5-.34v14.83c-1.12-.69-2.68-1.31-4.59-1.87 1.05-2.02.67-4.51-.95-6.13-1.69-1.7-4.32-2.03-6.38-.82l-5.13 3-.18.15c-1.83-2.94-4.63-4.82-7.77-4.82-2.98 0-5.66 1.7-7.49 4.39-2.12-1.5-4.71-2.39-7.51-2.39-1.39 0-2.72.22-3.98.63l-.02-.06v-6.91c.45.22.96.34 1.5.34z" fill="#e6e9ed"/><path d="m7.14 46.92c5.39 1.86 14.51 3.08 24.86 3.08 4.14 0 8.09-.2 11.68-.55 2.08-.2 4.04-.46 5.84-.77 7.56-1.27 12.48-3.34 12.48-5.68 0 10.49-8.51 19-19 19h-22c-10.49 0-19-8.51-19-19 0 1.46 1.89 2.8 5.14 3.91z" fill="#cf9e76"/><path d="m60 40.49c1.29.77 2 1.62 2 2.51 0 2.34-4.92 4.41-12.48 5.68l5.76-9.81c.05-.08.09-.16.13-.25 1.91.56 3.47 1.18 4.59 1.87z" fill="#b27946"/><path d="m7 45c0 .65.05 1.28.14 1.91-3.25-1.11-5.14-2.45-5.14-3.91 0-1.67 2.51-3.2 6.69-4.41-1.07 1.89-1.69 4.08-1.69 6.41z" fill="#b27946"/><path d="m45 43c0 2.35-.48 4.55-1.32 6.45-3.59.35-7.54.55-11.68.55.65-1.54 1-3.23 1-5 0-4.38-2.17-8.26-5.49-10.61 1.83-2.69 4.51-4.39 7.49-4.39 3.14 0 5.94 1.88 7.77 4.82 1.39 2.23 2.23 5.08 2.23 8.18z" fill="#fcd770"/><path d="m54.46 32.49c1.62 1.62 2 4.11.95 6.13-.04.09-.08.17-.13.25l-5.76 9.81c-1.8.31-3.76.57-5.84.77.84-1.9 1.32-4.1 1.32-6.45 0-3.1-.84-5.95-2.23-8.18l.18-.15 5.13-3c2.06-1.21 4.69-.88 6.38.82z" fill="#b4dd7f"/><path d="m33 45c0 1.77-.35 3.46-1 5-10.35 0-19.47-1.22-24.86-3.08v-.01c-.09-.63-.14-1.26-.14-1.91 0-2.33.62-4.52 1.69-6.41 1.59-2.81 4.2-4.97 7.33-5.96 1.26-.41 2.59-.63 3.98-.63 2.8 0 5.39.89 7.51 2.39 3.32 2.35 5.49 6.23 5.49 10.61z" fill="#ff826e"/></g><g><path d="m63 22.5v-2.5l-2.614-8.862c-.336-1.12-1.264-1.918-2.386-2.099v-5.039c0-1.654-1.346-3-3-3h-34c-1.654 0-3 1.346-3 3v5.039c-1.122.181-2.05.979-2.386 2.099l-2.572 8.575-.042 2.787c0 1.557.795 2.93 2 3.738v5.701c-2.909 1.117-5.346 3.174-6.949 5.802-4.675 1.399-7.051 3.166-7.051 5.259 0 11.028 8.972 20 20 20h22c11.028 0 20-8.972 20-20 0-1.111-.674-2.129-2-3.051v-13.711c1.205-.808 2-2.181 2-3.738zm-4.5 2.5h-1c-1.378 0-2.5-1.122-2.5-2.5v-1.5h6v1.5c0 1.378-1.122 2.5-2.5 2.5zm-43.5-2.5v-1.5h6v1.5c0 1.378-1.122 2.5-2.5 2.5h-1c-1.378 0-2.5-1.122-2.5-2.5zm31.802-3.5-1.585-8h5.963l1.6 8zm-3.622-8 1.6 8h-5.78v-8zm-6.18 8h-5.78l1.6-8h4.18zm-7.82 0h-5.96l1.6-8h5.96zm-6.18 2h6v1.5c0 1.378-1.122 2.5-2.5 2.5h-1c-1.378 0-2.5-1.122-2.5-2.5zm8 0h6v1.5c0 1.378-1.122 2.5-2.5 2.5h-1c-1.378 0-2.5-1.122-2.5-2.5zm8 0h6v1.5c0 1.378-1.122 2.5-2.5 2.5h-1c-1.378 0-2.5-1.122-2.5-2.5zm8 0h6v1.5c0 1.378-1.122 2.5-2.5 2.5h-1c-1.378 0-2.5-1.122-2.5-2.5zm11.47-9.288 2.186 7.288h-5.854l-1.582-8h4.292c.445 0 .83.287.958.712zm-37.47-8.712h34c.551 0 1 .449 1 1v5h-36v-5c0-.551.449-1 1-1zm-3.47 8.713c.128-.426.513-.713.958-.713h4.292l-1.6 8h-5.836zm2.47 21.287c6.617 0 12 5.383 12 12 0 1.378-.243 2.716-.696 3.996-10.417-.053-18.438-1.283-23.237-2.792-.04-.4-.067-.801-.067-1.204 0-6.617 5.383-12 12-12zm25.184 15.297c.535-1.673.816-3.474.816-5.297 0-2.897-.695-5.591-1.884-7.826l4.468-2.642c1.672-.981 3.797-.708 5.168.663s1.643 3.496.663 5.168l-5.527 9.428c-1.16.186-2.396.356-3.704.506zm-1.184-5.297c0 1.932-.368 3.823-1.035 5.525-2.888.264-6.08.43-9.547.466.384-1.288.582-2.624.582-3.991 0-4.342-1.987-8.228-5.099-10.798 1.659-2.042 3.838-3.202 6.099-3.202 4.962 0 9 5.383 9 12zm-37.153-2.75c-.538 1.486-.847 3.081-.847 4.75 0 .154.012.308.017.462-1.969-.827-3.017-1.691-3.017-2.462 0-.653 1.05-1.698 3.847-2.75zm36.153 20.75h-22c-8.821 0-16.165-6.382-17.694-14.768 4.891 3.14 16.844 4.768 28.694 4.768s23.803-1.628 28.694-4.768c-1.529 8.386-8.873 14.768-17.694 14.768zm8.481-13.678 4.403-7.511c3.758 1.194 5.116 2.447 5.116 3.189 0 1.392-3.41 3.089-9.519 4.322zm7.519-8.474c-.675-.302-1.434-.591-2.278-.866.64-2.162.094-4.552-1.556-6.201-2.014-2.015-5.138-2.414-7.594-.974l-4.539 2.661c-2.009-2.742-4.862-4.468-8.033-4.468-2.916 0-5.685 1.475-7.734 4.056-2.121-1.295-4.604-2.056-7.266-2.056-1.03 0-2.032.12-3 .332v-4.382c.166.018.329.05.5.05h1c1.421 0 2.675-.675 3.5-1.706.825 1.031 2.079 1.706 3.5 1.706h1c1.421 0 2.675-.675 3.5-1.706.825 1.031 2.079 1.706 3.5 1.706h1c1.421 0 2.675-.675 3.5-1.706.825 1.031 2.079 1.706 3.5 1.706h1c1.421 0 2.675-.675 3.5-1.706.825 1.031 2.079 1.706 3.5 1.706h1c1.421 0 2.675-.675 3.5-1.706.825 1.031 2.079 1.706 3.5 1.706h1c.171 0 .334-.032.5-.051z"/><path d="m22 5h2v2h-2z"/><path d="m26 5h24v2h-24z"/><path d="m52 5h2v2h-2z"/><path d="m8.62 49.532-1.768.937c2.789 5.262 8.21 8.531 14.148 8.531h1v-2h-1c-5.196 0-9.939-2.862-12.38-7.468z"/><path d="m20 39c2.243 0 4-1.318 4-3h-2c0 .408-.779 1-2 1s-2-.592-2-1h-2c0 1.682 1.757 3 4 3z"/><path d="m24 57h2v2h-2z"/><path d="m35 33v2c1.81 0 3.553 1.736 4.438 4.422l1.899-.627c-1.16-3.52-3.648-5.795-6.337-5.795z"/><path d="m40 43h2c0-.723-.057-1.448-.168-2.156l-1.976.312c.096.605.144 1.225.144 1.844z"/></g></g></svg>